<svg width="42" height="51" viewBox="0 0 42 51" fill="none" xmlns="http://www.w3.org/2000/svg">
    <g clip-path="url(#clip0_2909_30251)">
    <path d="M40.6636 17.3859C40.3644 17.6154 35.0808 20.5581 35.0808 27.1014C35.0808 34.6698 41.8039 37.3473 42.0052 37.4136C41.9742 37.5768 40.9371 41.0805 38.4604 44.6505C36.2521 47.7921 33.9457 50.9286 30.4371 50.9286C26.9285 50.9286 26.0256 48.9141 21.9752 48.9141C18.028 48.9141 16.6246 50.9949 13.4152 50.9949C10.2059 50.9949 7.96658 48.0879 5.39189 44.5179C2.40958 40.3257 0 33.813 0 27.6318C0 17.7174 6.52187 12.4593 12.9405 12.4593C16.3511 12.4593 19.1941 14.6727 21.3354 14.6727C23.3735 14.6727 26.5518 12.3267 30.4319 12.3267C31.9025 12.3267 37.186 12.4593 40.6636 17.3859ZM28.5899 8.1294C30.1946 6.2475 31.3297 3.6363 31.3297 1.0251C31.3297 0.663 31.2988 0.2958 31.2317 0C28.6209 0.0969 25.5147 1.7187 23.6418 3.8658C22.1713 5.5182 20.7988 8.1294 20.7988 10.7763C20.7988 11.1741 20.8658 11.5719 20.8968 11.6994C21.0619 11.73 21.3302 11.7657 21.5985 11.7657C23.941 11.7657 26.8872 10.2153 28.5899 8.1294Z" fill="black"/>
    </g>
    <defs>
    <clipPath id="clip0_2909_30251">
    <rect width="42" height="51" fill="white"/>
    </clipPath>
    </defs>
    </svg>