<svg width="52" height="53" viewBox="0 0 52 53" fill="none" xmlns="http://www.w3.org/2000/svg">
    <g clip-path="url(#clip0_2909_30253)">
    <path d="M52 27.134C52 25.3481 51.8267 23.5046 51.5378 21.7764H26.52V31.9731H40.8489C40.2711 35.2568 38.3645 38.1372 35.5334 39.9807L44.0845 46.6057C49.1111 41.9394 52 35.1416 52 27.134Z" fill="#4280EF"/>
    <path d="M26.5204 52.9427C33.6849 52.9427 39.6938 50.5807 44.0849 46.5481L35.5338 39.9807C33.1649 41.5937 30.1027 42.5155 26.5204 42.5155C19.5871 42.5155 13.7515 37.8492 11.6138 31.6274L2.83154 38.3677C7.33821 47.297 16.4671 52.9427 26.5204 52.9427Z" fill="#34A353"/>
    <path d="M11.6135 31.5698C10.5158 28.2861 10.5158 24.7143 11.6135 21.4306L2.83131 14.6328C-0.92424 22.1219 -0.92424 30.9361 2.83131 38.3676L11.6135 31.5698Z" fill="#F6B704"/>
    <path d="M26.5204 10.5424C30.276 10.4848 33.9738 11.925 36.6893 14.5174L44.2582 6.91308C39.4627 2.4196 33.1071 3.73681e-05 26.5204 0.0576461C16.4671 0.0576461 7.33821 5.7033 2.83154 14.6326L11.6138 21.4305C13.7515 15.1511 19.5871 10.5424 26.5204 10.5424Z" fill="#E54335"/>
    </g>
    <defs>
    <clipPath id="clip0_2909_30253">
    <rect width="52" height="53" fill="white"/>
    </clipPath>
    </defs>
    </svg>